<svg xmlns="http://www.w3.org/2000/svg" version="1.1" xmlns:xlink="http://www.w3.org/1999/xlink" xmlns:svgjs="http://svgjs.dev/svgjs" width="1440" height="560" preserveAspectRatio="none" viewBox="0 0 1440 560"><g mask="url(&quot;#SvgjsMask1022&quot;)" fill="none"><rect width="1440" height="560" x="0" y="0" fill="rgba(217, 196, 188, 1)"></rect><path d="M 0,117 C 41.2,148.6 123.6,272.8 206,275 C 288.4,277.2 329.6,154.8 412,128 C 494.4,101.2 535.6,166.4 618,141 C 700.4,115.6 741.6,-22.2 824,1 C 906.4,24.2 947.6,255.2 1030,257 C 1112.4,258.8 1154,7 1236,10 C 1318,13 1399.2,219.6 1440,272L1440 560L0 560z" fill="rgba(201, 173, 161, 1)"></path><path d="M 0,364 C 96,393.2 288,513.8 480,510 C 672,506.2 768,344 960,345 C 1152,346 1344,481 1440,515L1440 560L0 560z" fill="rgba(223, 169, 146, 1)"></path></g><defs><mask id="SvgjsMask1022"><rect width="1440" height="560" fill="#ffffff"></rect></mask></defs></svg>